PathFileType	4	(X/Y/Z)	Walk7.trc
DataRate	CameraRate	NumFrames	NumMarkers	Units	OrigDataRate	OrigDataStartFrame	OrigNumFrames
200.000000	200.000000	9	61	mm	200.000000	335	437
Frame#	Times		LFHD		RFHD		CLAV		STRN		LASI		RASI		RACR1		RUA1		RFA1		RWRU		RCAR		LACR1		LUA1		LFA1		LWRU		LCAR		RTH3		RTB4		LTH1		LTH3		LTH2		LTH4		LLFC		LTB1		LTB3		LTB2		LTB4		RTB1		RTB3		RMT5		RMFC		LBHD		RWRR		RTH2		RToe		RMT1		LElbow		RLFC		LWRR		RTB2		RMMAL		RTH4		RElbow		LMFC		LToe		LPSI		T10		RBack		RLMAL		RBHD		RTH1		RCAL		RPSI		C7		LElbowM		LMMAL		RElbowM		LLMAL		LCAL		LMT5		LMT1
			X1	Y1	Z1	X2	Y2	Z2	X3	Y3	Z3	X4	Y4	Z4	X5	Y5	Z5	X6	Y6	Z6	X7	Y7	Z7	X8	Y8	Z8	X9	Y9	Z9	X10	Y10	Z10	X11	Y11	Z11	X12	Y12	Z12	X13	Y13	Z13	X14	Y14	Z14	X15	Y15	Z15	X16	Y16	Z16	X17	Y17	Z17	X18	Y18	Z18	X19	Y19	Z19	X20	Y20	Z20	X21	Y21	Z21	X22	Y22	Z22	X23	Y23	Z23	X24	Y24	Z24	X25	Y25	Z25	X26	Y26	Z26	X27	Y27	Z27	X28	Y28	Z28	X29	Y29	Z29	X30	Y30	Z30	X31	Y31	Z31	X32	Y32	Z32	X33	Y33	Z33	X34	Y34	Z34	X35	Y35	Z35	X36	Y36	Z36	X37	Y37	Z37	X38	Y38	Z38	X39	Y39	Z39	X40	Y40	Z40	X41	Y41	Z41	X42	Y42	Z42	X43	Y43	Z43	X44	Y44	Z44	X45	Y45	Z45	X46	Y46	Z46	X47	Y47	Z47	X48	Y48	Z48	X49	Y49	Z49	X50	Y50	Z50	X51	Y51	Z51	X52	Y52	Z52	X53	Y53	Z53	X54	Y54	Z54	X55	Y55	Z55	X56	Y56	Z56	X57	Y57	Z57	X58	Y58	Z58	X59	Y59	Z59	X60	Y60	Z60	X61	Y61	Z61

335	1.675	832.9	1576.8	-67.324	829.56	1582.7	32.067	788.77	1302	-11.836	803.94	1165.6	-5.8639	750.24	894.66	-104.9	749.11	911.87	144.94	738.77	1345.9	157.65	745.07	1180.3	220.14	851.02	917.95	267.07	943.77	845.75	216.64	968.74	775.31	254.67	701.73	1346.9	-161.54	628.93	1183.6	-203.46	501.76	921.5	-214.05	501.08	794.73	-210.41	435.38	750.03	-222.78	602.61	593.52	178.4	500.66	263.85	107.18	732.47	732.92	-175.05	792.11	574.22	-143.59	812.8	677.99	-140.18	761.84	652.71	-160.99	845.36	452.19	-117.2	912.39	373.02	-55.589	949.4	206.41	-45.826	912.58	282.04	-110.2	928.29	288.26	-51.269	533.89	343.78	117.74	465.13	185.95	93.032	460.58	26.457	110.52	517.88	457.69	21.264	691.36	1509.6	-90.262	900.66	809.39	255.72	681.63	661.16	171.47	551.5	24.065	60.126	498.78	32.071	26.644	550.28	1046.8	-195.34	549.32	450.91	149.97	442.72	821.38	-184.24	453.29	279.64	143.78	398.76	118.72	19.949	629.87	670.83	197.64	755.6	1015	263.07	830.49	435.58	14.81	1127	112.46	-56.831	576.15	954.61	-36.508	595.65	1203.2	14.038	607.17	1291.5	82.558	373.51	102.54	97.12	689.12	1524.6	54.096	659.93	749.68	220.2	321.65	93.125	51.22	577.86	957.38	63.405	682.37	1408.7	-7.5351	556.33	1033	-122.16	942.12	105.62	-7.0037	712.86	1002.5	198.2	930.13	81.796	-85.797	892.65	34.479	-38.632	1046.3	74.149	-98.305	1076.9	97.681	-25.87
336	1.68	840.97	1575.8	-67.839	837.67	1581.7	31.546	797.05	1300.9	-12.203	812.25	1164.6	-6.1265	759.11	893.48	-104.84	756.92	910.96	145.11	746.72	1345	157.13	753.17	1179.4	219.73	859.83	917.74	266.54	953.1	846.32	215.87	978.6	776.01	253.79	710.3	1345.8	-162.14	636.79	1182.9	-204.11	508.37	921.44	-214.7	507.01	794.67	-210.91	441.07	750.25	-223.31	608.76	593.27	178.31	503.9	264.14	107.46	741.2	731.96	-175.51	800.1	572.93	-144.11	820.99	676.65	-140	770.2	651.6	-161.54	853.05	450.8	-117.19	921.29	372.68	-55.632	961.33	206.61	-45.911	923.15	281.66	-110.26	938.75	288.15	-51.336	538.1	343.63	117.94	467.44	186.61	93.386	460.75	26.575	110.56	523.88	457.63	21.238	699.5	1508.4	-90.699	910.24	809.59	254.96	688.2	660.53	171.69	551.46	24.083	60.059	498.89	32.007	26.669	557.52	1046.5	-195.94	554.75	450.75	150.07	448.73	821.68	-184.92	456.66	280.53	143.94	400.2	120.14	20.387	636.44	670.46	197.65	763.78	1014.2	262.79	837.63	433.71	14.773	1140.7	115.39	-56.703	584.71	953.56	-37.544	603.93	1202.1	13.338	615.3	1290.4	81.869	374.79	104.32	97.555	697.29	1523.5	53.673	666.79	749.23	220.12	322.81	95.603	51.701	585.97	956.29	62.387	690.56	1407.6	-8.173	563.52	1032.6	-122.78	955.79	105.64	-7.0918	720.98	1001.7	197.96	944.23	81.615	-85.869	907.45	33.625	-38.653	1060.7	75.63	-98.296	1090.9	99.816	-25.829
337	1.685	849.04	1574.8	-68.349	845.77	1580.8	31.03	805.36	1299.9	-12.603	820.6	1163.6	-6.4207	768.01	892.29	-104.77	764.81	910.04	145.25	754.66	1344.1	156.57	761.25	1178.6	219.29	868.54	917.49	266.03	962.31	846.8	215.15	988.29	776.62	252.97	718.87	1344.7	-162.77	644.74	1182.3	-204.81	515.22	921.28	-215.48	513.26	794.51	-211.52	447.12	750.33	-223.99	615.13	592.96	178.22	507.29	264.39	107.79	750.02	731.04	-175.93	808.19	571.71	-144.49	829.28	675.38	-139.79	778.65	650.54	-161.98	860.76	449.42	-117.15	930.01	372.18	-55.627	972.58	206.61	-45.913	933.24	281.14	-110.25	948.77	287.88	-51.335	542.5	343.42	118.17	469.88	187.26	93.789	460.95	26.694	110.62	530.07	457.53	21.258	707.65	1507.3	-91.164	919.67	809.72	254.25	694.96	659.86	171.86	551.41	24.102	59.981	498.98	31.937	26.699	564.92	1046	-196.66	560.43	450.53	150.2	455.02	821.86	-185.79	460.24	281.42	144.15	401.74	121.59	20.898	643.22	670.05	197.64	771.9	1013.4	262.5	844.83	431.93	14.771	1153.4	117.67	-56.477	593.32	952.54	-38.588	612.24	1201	12.597	623.44	1289.3	81.125	376.19	106.16	98.068	705.45	1522.5	53.224	673.82	748.74	220.01	324.06	98.193	52.262	594.17	955.22	61.371	698.76	1406.5	-8.8447	570.8	1032.2	-123.52	968.48	105.51	-7.0827	729.07	1000.8	197.68	957.3	81.332	-85.84	921.07	32.827	-38.597	1074	76.68	-98.178	1103.9	101.41	-25.686
338	1.69	857.12	1573.8	-68.855	853.87	1579.8	30.519	813.67	1298.8	-13.036	829	1162.6	-6.7478	776.94	891.1	-104.72	772.79	909.1	145.36	762.58	1343.1	155.98	769.29	1177.7	218.82	877.15	917.19	265.54	971.38	847.18	214.49	997.81	777.12	252.22	727.44	1343.5	-163.43	652.78	1181.5	-205.57	522.32	921.02	-216.4	519.82	794.25	-212.24	453.53	750.26	-224.82	621.72	592.59	178.14	510.85	264.62	108.15	758.9	730.17	-176.29	816.38	570.57	-144.74	837.67	674.18	-139.55	787.18	649.54	-162.33	868.51	448.06	-117.08	938.56	371.53	-55.573	983.14	206.39	-45.822	942.87	280.47	-110.17	958.36	287.42	-51.264	547.12	343.15	118.42	472.46	187.91	94.241	461.17	26.816	110.7	536.46	457.36	21.326	715.8	1506.2	-91.658	928.94	809.77	253.59	701.91	659.16	172	551.34	24.119	59.892	499.06	31.863	26.737	572.48	1045.6	-197.5	566.36	450.23	150.34	461.58	821.91	-186.82	464.02	282.29	144.41	403.39	123.09	21.485	650.19	669.58	197.62	779.96	1012.6	262.19	852.13	430.28	14.8	1165.1	119.22	-56.137	601.98	951.54	-39.635	620.58	1199.9	11.815	631.58	1288.2	80.325	377.71	108.06	98.66	713.6	1521.4	52.748	681.02	748.22	219.87	325.43	100.9	52.904	602.46	954.17	60.361	706.96	1405.4	-9.5505	578.18	1031.8	-124.37	980.17	105.21	-6.9678	737.12	999.89	197.38	969.3	80.916	-85.701	933.49	32.062	-38.458	1086.2	77.245	-97.94	1115.7	102.42	-25.429
339	1.695	865.2	1572.9	-69.355	861.95	1578.8	30.015	822.01	1297.8	-13.503	837.43	1161.6	-7.1087	785.9	889.91	-104.67	780.86	908.16	145.44	770.51	1342.1	155.36	777.31	1176.9	218.33	885.66	916.83	265.07	980.32	847.45	213.89	1007.2	777.52	251.55	736.03	1342.4	-164.13	660.91	1180.8	-206.38	529.67	920.65	-217.45	526.7	793.89	-213.08	460.3	750.04	-225.79	628.55	592.14	178.06	514.6	264.8	108.55	767.83	729.34	-176.59	824.66	569.51	-144.85	846.14	673.07	-139.3	795.78	648.6	-162.56	876.32	446.74	-116.99	946.96	370.73	-55.468	993.02	205.94	-45.632	952.06	279.64	-110	967.53	286.77	-51.117	551.97	342.81	118.7	475.2	188.57	94.746	461.43	26.942	110.81	543.06	457.13	21.442	723.97	1505.1	-92.181	938.06	809.75	252.97	709.05	658.42	172.11	551.24	24.134	59.791	499.12	31.786	26.78	580.19	1045	-198.45	572.58	449.85	150.51	468.43	821.83	-188.03	468.02	283.15	144.73	405.15	124.62	22.147	657.37	669.06	197.59	787.96	1011.7	261.86	859.53	428.76	14.851	1175.7	119.98	-55.674	610.68	950.58	-40.677	628.96	1198.8	10.995	639.73	1287.1	79.469	379.36	110.01	99.331	721.73	1520.3	52.245	688.4	747.65	219.69	326.95	103.74	53.627	610.84	953.13	59.363	715.16	1404.3	-10.291	585.66	1031.3	-125.33	990.88	104.72	-6.7419	745.14	999	197.06	980.25	80.343	-85.444	944.69	31.312	-38.234	1097.3	77.285	-97.572	1126.6	102.78	-25.048
340	1.7	873.28	1571.9	-69.847	870.01	1577.9	29.52	830.36	1296.8	-14.006	845.91	1160.6	-7.5045	794.88	888.73	-104.63	789.03	907.2	145.48	778.42	1341.1	154.71	785.3	1176	217.8	894.06	916.43	264.62	989.12	847.63	213.35	1016.3	777.82	250.94	744.63	1341.3	-164.85	669.14	1180	-207.26	537.27	920.18	-218.62	533.89	793.44	-214.04	467.42	749.68	-226.9	635.63	591.61	177.99	518.55	264.94	108.98	776.79	728.54	-176.83	833.03	568.54	-144.82	854.71	672.05	-139.05	804.44	647.71	-162.68	884.21	445.48	-116.87	955.21	369.78	-55.31	1002.2	205.24	-45.337	960.81	278.66	-109.75	976.29	285.93	-50.89	557.06	342.38	119	478.1	189.22	95.304	461.71	27.077	110.94	549.89	456.83	21.604	732.14	1504.1	-92.733	947.03	809.65	252.4	716.41	657.64	172.18	551.12	24.144	59.679	499.17	31.707	26.83	588.08	1044.4	-199.51	579.09	449.38	150.69	475.55	821.61	-189.4	472.25	284	145.09	407.06	126.2	22.887	664.76	668.47	197.54	795.9	1010.9	261.51	867.07	427.39	14.919	1185.4	119.92	-55.075	619.43	949.65	-41.707	637.37	1197.6	10.136	647.89	1286	78.558	381.16	112.04	100.08	729.85	1519.2	51.713	695.95	747.04	219.48	328.62	106.72	54.431	619.3	952.11	58.382	723.36	1403.3	-11.066	593.25	1030.7	-126.41	1000.6	104.01	-6.4036	753.13	998.11	196.71	990.14	79.599	-85.069	954.7	30.571	-37.93	1107.3	76.776	-97.069	1136.4	102.47	-24.534
341	1.705	881.37	1571	-70.331	878.06	1577	29.033	838.74	1295.9	-14.543	854.43	1159.7	-7.9364	803.87	887.58	-104.61	797.29	906.23	145.48	786.34	1340.2	154.04	793.25	1175.1	217.25	902.37	915.99	264.2	997.78	847.69	212.87	1025.3	778	250.41	753.23	1340.2	-165.6	677.48	1179.2	-208.19	545.11	919.61	-219.93	541.39	792.88	-215.11	474.88	749.17	-228.16	642.97	591	177.93	522.71	265.03	109.46	785.76	727.78	-177.01	841.49	567.64	-144.67	863.35	671.11	-138.81	813.14	646.88	-162.71	892.18	444.27	-116.73	963.34	368.69	-55.094	1010.8	204.3	-44.933	969.16	277.52	-109.41	984.66	284.91	-50.579	562.41	341.88	119.34	481.18	189.88	95.919	462.03	27.223	111.09	556.96	456.45	21.813	740.32	1503	-93.314	955.83	809.48	251.89	723.97	656.82	172.22	550.97	24.149	59.554	499.2	31.63	26.885	596.13	1043.7	-200.68	585.91	448.82	150.89	482.95	821.25	-190.92	476.73	284.82	145.5	409.12	127.82	23.704	672.36	667.81	197.47	803.78	1010	261.14	874.73	426.17	14.999	1194.1	119.03	-54.335	628.21	948.77	-42.716	645.82	1196.5	9.2414	656.06	1284.8	77.595	383.13	114.13	100.91	737.96	1518.1	51.152	703.67	746.39	219.22	330.48	109.82	55.318	627.83	951.12	57.425	731.57	1402.2	-11.876	600.96	1030.1	-127.61	1009.4	103.09	-5.9557	761.07	997.23	196.35	999.02	78.684	-84.579	963.52	29.842	-37.556	1116.2	75.714	-96.43	1145.2	101.48	-23.881
342	1.71	889.45	1570.2	-70.807	886.09	1576	28.556	847.13	1294.9	-15.115	862.99	1158.8	-8.4051	812.86	886.45	-104.62	805.63	905.25	145.44	794.26	1339.2	153.33	801.18	1174.2	216.66	910.57	915.49	263.79	1006.3	847.64	212.45	1034.1	778.07	249.97	761.85	1339.1	-166.38	685.92	1178.3	-209.18	553.2	918.93	-221.35	549.2	792.21	-216.31	482.68	748.53	-229.56	650.57	590.3	177.87	527.11	265.08	109.99	794.73	727.06	-177.13	850.03	566.84	-144.41	872.06	670.25	-138.6	821.88	646.1	-162.64	900.25	443.13	-116.57	971.34	367.48	-54.816	1018.7	203.13	-44.421	977.13	276.25	-108.99	992.66	283.72	-50.182	568.03	341.29	119.71	484.46	190.54	96.592	462.39	27.386	111.27	564.29	455.98	22.067	748.5	1502.1	-93.922	964.48	809.22	251.43	731.74	655.95	172.23	550.79	24.145	59.418	499.22	31.562	26.947	604.34	1043	-201.96	593.05	448.15	151.09	490.64	820.77	-192.6	481.48	285.63	145.96	411.36	129.49	24.599	680.17	667.09	197.37	811.61	1009.2	260.76	882.52	425.11	15.086	1201.9	117.3	-53.448	637.02	947.95	-43.694	654.31	1195.3	8.3127	664.23	1283.7	76.581	385.28	116.3	101.82	746.05	1517	50.563	711.56	745.68	218.93	332.55	113.07	56.288	636.45	950.15	56.5	739.78	1401.1	-12.719	608.78	1029.4	-128.91	1017.2	101.96	-5.4059	768.98	996.35	195.97	1006.9	77.611	-83.985	971.21	29.139	-37.126	1124.1	74.111	-95.662	1153	99.819	-23.09
343	1.715	897.54	1569.4	-71.275	894.11	1575.1	28.088	855.54	1294	-15.722	871.58	1157.9	-8.9116	821.85	885.36	-104.65	814.05	904.26	145.34	802.18	1338.2	152.59	809.06	1173.3	216.05	918.66	914.94	263.4	1014.7	847.48	212.08	1042.8	778.02	249.6	770.48	1338.1	-167.19	694.48	1177.4	-210.22	561.52	918.16	-222.89	557.32	791.46	-217.63	490.82	747.75	-231.11	658.44	589.49	177.82	531.75	265.07	110.55	803.68	726.37	-177.22	858.63	566.11	-144.06	880.83	669.48	-138.44	830.64	645.38	-162.5	908.4	442.08	-116.4	979.22	366.17	-54.473	1026.1	201.77	-43.802	984.76	274.88	-108.49	1000.3	282.38	-49.7	573.93	340.61	120.12	487.97	191.2	97.326	462.78	27.576	111.47	571.9	455.4	22.364	756.7	1501.1	-94.558	972.96	808.88	251.02	739.74	655.04	172.2	550.58	24.133	59.272	499.24	31.509	27.017	612.72	1042.1	-203.33	600.55	447.37	151.31	498.6	820.15	-194.42	486.51	286.42	146.47	413.8	131.21	25.57	688.2	666.29	197.25	819.38	1008.3	260.35	890.44	424.21	15.179	1208.9	114.77	-52.417	645.85	947.18	-44.631	662.82	1194.2	7.3525	672.42	1282.5	75.52	387.64	118.54	102.8	754.12	1515.9	49.947	719.63	744.92	218.6	334.88	116.47	57.342	645.12	949.22	55.617	748.01	1400.1	-13.595	616.73	1028.6	-130.3	1024.2	100.65	-4.7658	776.86	995.47	195.56	1013.9	76.402	-83.3	977.83	28.486	-36.662	1131	71.999	-94.776	1159.9	97.503	-22.165
